<svg preserveAspectRatio="none" overflow="visible" style="display: block;" width="16.4357" height="16.4344" viewBox="0 0 16.4357 16.4344" fill="none" xmlns="http://www.w3.org/2000/svg">
<path id="Icon (Stroke)" d="M10.0655 0.334425C12.0016 -0.235001 13.9955 -0.14695 15.2885 1.14579C16.1735 2.03076 16.4946 3.25859 16.427 4.54341C16.366 5.70263 15.9884 6.96309 15.3642 8.2161C15.675 8.83963 15.9227 9.45983 16.1007 10.0651C16.6702 12.0013 16.5816 13.995 15.2885 15.288C13.9955 16.5811 12.0017 16.6697 10.0655 16.1002C9.46053 15.9222 8.84071 15.6743 8.2174 15.3637C7.59415 15.6743 6.9742 15.9223 6.36925 16.1002C4.43314 16.6696 2.43924 16.581 1.14627 15.288C0.262133 14.4037 -0.0584208 13.1774 0.00857596 11.8937C0.0691854 10.7334 0.445651 9.47114 1.07059 8.21691C0.760104 7.59375 0.512811 6.97363 0.334911 6.36877C-0.234485 4.43264 -0.146708 2.43877 1.14627 1.14579C2.43925 -0.147193 4.43312 -0.23497 6.36925 0.334425C6.97412 0.512326 7.59423 0.759619 8.2174 1.0701C8.84061 0.75956 9.46063 0.512366 10.0655 0.334425ZM2.11876 9.98124C1.85256 10.7016 1.70429 11.378 1.6728 11.9799C1.62223 12.9479 1.87124 13.6554 2.32547 14.1097C2.98504 14.7691 4.20977 14.9978 5.89888 14.5011C6.08066 14.4476 6.26516 14.3847 6.45226 14.3155C5.64183 13.7555 4.84568 13.0947 4.09305 12.3421C3.34 11.589 2.67897 10.7921 2.11876 9.98124ZM5.89888 1.93355C4.20966 1.43678 2.98502 1.66543 2.32547 2.32499C1.66592 2.98454 1.43727 4.20917 1.93403 5.89839C2.42077 7.55332 3.5607 9.45295 5.27143 11.1637C6.21987 12.1121 7.22689 12.884 8.2174 13.4676C9.20809 12.884 10.2156 12.1123 11.1642 11.1637C11.3997 10.9282 11.6245 10.6882 11.8388 10.4459C12.1437 10.1014 12.6701 10.0696 13.0148 10.3743C13.3595 10.6792 13.3921 11.2055 13.0872 11.5502C12.8503 11.8181 12.6021 12.0825 12.3426 12.3421C11.5898 13.0949 10.7931 13.7555 9.98253 14.3155C10.1697 14.3847 10.354 14.4476 10.5359 14.5011C12.2253 14.998 13.4506 14.7692 14.1101 14.1097C14.7697 13.4501 14.9985 12.2248 14.5016 10.5354C14.3244 9.93304 14.0602 9.29853 13.7138 8.6523C13.6976 8.62563 13.6829 8.59829 13.6699 8.5701C13.0675 7.46679 12.2258 6.33256 11.1642 5.27095C10.2154 4.32214 9.20829 3.54909 8.2174 2.96545C7.22665 3.54905 6.2201 4.32229 5.27143 5.27095C5.02521 5.51717 4.79048 5.76774 4.5675 6.02127C4.26363 6.36676 3.73714 6.40064 3.39155 6.09696C3.04596 5.79301 3.01192 5.26579 3.31587 4.9202C3.56237 4.63993 3.82179 4.36383 4.09305 4.09256C4.84596 3.33965 5.64231 2.67843 6.45307 2.11828C6.2658 2.04908 6.08083 1.98706 5.89888 1.93355ZM6.53364 8.19982C6.53364 7.27937 7.27986 6.53318 8.20031 6.53316C9.12078 6.53316 9.86697 7.27935 9.86697 8.19982C9.86697 9.12029 9.12078 9.86649 8.20031 9.86649C7.27986 9.86646 6.53364 9.12028 6.53364 8.19982ZM14.1101 2.32499C13.4506 1.6654 12.2253 1.43667 10.5359 1.93355C10.3539 1.98709 10.1691 2.04903 9.98172 2.11828C10.7926 2.67849 11.5895 3.33952 12.3426 4.09256C13.0953 4.84536 13.756 5.64196 14.316 6.45259C14.5819 5.73307 14.7311 5.05777 14.7628 4.45633C14.8138 3.48738 14.5646 2.77952 14.1101 2.32499Z" fill="#AEB2BE"/>
</svg>
